<?xml version="1.0" encoding="UTF-8"?>
<svg width="24px" height="54px" viewBox="0 0 24 54" version="1.1" xmlns="http://www.w3.org/2000/svg" xmlns:xlink="http://www.w3.org/1999/xlink">
    <title>女性</title>
    <g id="页面-1" stroke="none" stroke-width="1" fill="none" fill-rule="evenodd">
        <g id="数据可视化" transform="translate(-1080.000000, -672.000000)" fill="#B945FF" fill-rule="nonzero">
            <g id="编组-38" transform="translate(392.000000, 604.000000)">
                <g id="乘客性别" transform="translate(590.000000, 0.000000)">
                    <g id="编组-15备份-2" transform="translate(0.000000, 33.000000)">
                        <g id="编组-25" transform="translate(30.000000, 35.000000)">
                            <g id="icon-person-nv" transform="translate(53.000000, 0.000000)">
                                <path d="M38.9102581,26.6625 L35.1669948,14.175 C34.8266981,12.4875 32.7849181,10.125 30.0625447,10.125 L23.9372047,10.125 C20.8745347,10.125 19.1730513,12.4875 18.8327547,14.175 L15.0894913,26.6625 C14.408898,29.3625 17.8118647,30.375 18.492458,28.0125 L21.8954247,16.5375 L22.9163147,16.5375 L17.471568,36.7875 L22.576018,36.7875 L22.576018,51.975 C22.576018,54.675 26.6595781,54.675 26.6595781,51.975 L26.6595781,36.7875 L28.0207647,36.7875 L28.0207647,51.975 C28.0207647,54.675 31.7640281,54.675 31.7640281,51.975 L31.7640281,36.7875 L37.2087748,36.7875 L31.4237314,16.5375 L32.4446214,16.5375 L35.8475881,28.0125 C36.1878848,30.375 39.5908515,29.3625 38.9102581,26.6625 L38.9102581,26.6625 Z M26.9998747,9.1125 C29.3819514,9.1125 31.4237314,7.0875 31.4237314,4.725 C31.4237314,2.025 29.3819514,0 26.9998747,0 C24.617798,0 22.576018,2.025 22.576018,4.3875 C22.576018,6.75 24.617798,9.1125 26.9998747,9.1125 Z" id="形状"></path>
                            </g>
                        </g>
                    </g>
                </g>
            </g>
        </g>
    </g>
</svg>
