<?xml version="1.0" encoding="UTF-8"?>
<svg width="27px" height="53px" viewBox="0 0 27 53" version="1.1" xmlns="http://www.w3.org/2000/svg" xmlns:xlink="http://www.w3.org/1999/xlink">
    <title>男性</title>
    <g id="页面-1" stroke="none" stroke-width="1" fill="none" fill-rule="evenodd">
        <g id="数据可视化" transform="translate(-1025.000000, -672.000000)" fill="#0084FF" fill-rule="nonzero">
            <g id="编组-38" transform="translate(392.000000, 604.000000)">
                <g id="乘客性别" transform="translate(590.000000, 0.000000)">
                    <g id="编组-15备份-2" transform="translate(0.000000, 33.000000)">
                        <g id="男性,男人,父亲,男生,男士" transform="translate(30.000000, 35.000000)">
                            <path d="M22,4.56896552 C22,7.09233549 24.0147186,9.13793103 26.5,9.13793103 C28.9852814,9.13793103 31,7.09233549 31,4.56896552 C31,2.04559554 28.9852814,0 26.5,0 C24.0147186,0 22,2.04559554 22,4.56896552 Z M38.4750912,32.1246601 C37.380357,32.4188971 36.2496457,31.7684785 35.9566886,30.6637993 L32.6622069,18.3264941 C32.6005317,18.0942018 32.2561787,18.1406602 32.2561787,18.3781146 L32.2561787,52.1740716 C32.2561787,52.6283322 31.8861277,53 31.4338432,53 L28.1445011,53 C27.6922165,53 27.3221655,52.6283322 27.3221655,52.1740716 L27.3221655,33.1777188 C27.3221655,32.7234582 26.9521146,32.3517905 26.49983,32.3517905 C26.0475455,32.3517905 25.6774945,32.7234582 25.6774945,33.1777188 L25.6774945,52.1740716 C25.6774945,52.6283322 25.3074435,53 24.8551589,53 L21.5658168,53 C21.1135323,53 20.7434813,52.6283322 20.7434813,52.1740716 L20.7434813,18.3781146 C20.7434813,18.1354982 20.3991283,18.0890397 20.3374531,18.3264941 L17.0429714,30.6637993 C16.7500143,31.7633165 15.619303,32.4188971 14.5245688,32.1246601 C13.4298346,31.8304232 12.7771058,30.6999337 13.0700628,29.5952545 L16.6420828,16.1739183 C17.6134667,12.5656437 20.8719712,10.0517241 24.5930395,10.0517241 L28.4117601,10.0517241 C32.137968,10.0517241 35.3964726,12.5656437 36.3575772,16.1790803 L39.9295972,29.6004165 C40.2225542,30.6999337 39.574965,31.8304232 38.4750912,32.1246601 L38.4750912,32.1246601 Z" id="形状结合"></path>
                        </g>
                    </g>
                </g>
            </g>
        </g>
    </g>
</svg>
